<svg xmlns="http://www.w3.org/2000/svg" width="178" height="40" viewBox="0 0 178 40" fill="none"><g clip-path="url(#clip0_2001_362)"><path d="M25.3142 0H14.6858C14.4454 0 14.205 0.00583333 13.965 0.0174999C13.725 0.0295834 13.4854 0.0470833 13.2463 0.0708333C13.0071 0.0941666 12.7688 0.12375 12.5308 0.15875C12.2933 0.194167 12.0563 0.235417 11.8208 0.282083C11.585 0.329167 11.3504 0.381667 11.1175 0.44C10.8842 0.498333 10.6525 0.5625 10.4225 0.6325C10.1925 0.702083 9.96458 0.7775 9.73833 0.858333C9.51208 0.939583 9.28792 1.02583 9.06583 1.11792C8.84375 1.21 8.62417 1.30708 8.40667 1.41C8.18958 1.51292 7.975 1.62083 7.76292 1.73417C7.55083 1.8475 7.34208 1.96583 7.13583 2.08917C6.92958 2.21292 6.72667 2.34167 6.52667 2.475C6.32708 2.60833 6.13042 2.74667 5.9375 2.89C5.74458 3.03333 5.555 3.18083 5.36917 3.33333C5.18333 3.48583 5.00167 3.64292 4.82333 3.80417C4.64542 3.96583 4.47125 4.13125 4.30125 4.30125C4.13125 4.47125 3.96583 4.64542 3.80417 4.82333C3.64292 5.00167 3.48583 5.18333 3.33333 5.36917C3.18083 5.555 3.03333 5.74458 2.89 5.9375C2.74667 6.13042 2.60833 6.32708 2.475 6.52667C2.34167 6.72667 2.21292 6.92958 2.08917 7.13583C1.96583 7.34208 1.8475 7.55083 1.73417 7.76292C1.62083 7.975 1.51292 8.18958 1.41 8.40667C1.30708 8.62417 1.21 8.84375 1.11792 9.06583C1.02583 9.28792 0.939583 9.51208 0.858333 9.73833C0.7775 9.96458 0.702083 10.1925 0.6325 10.4225C0.5625 10.6525 0.498333 10.8842 0.44 11.1175C0.381667 11.3504 0.329167 11.585 0.282083 11.8208C0.235417 12.0563 0.194167 12.2933 0.15875 12.5308C0.12375 12.7688 0.0941666 13.0071 0.0708333 13.2463C0.0470833 13.4854 0.0295834 13.725 0.0174999 13.965C0.00583333 14.205 0 14.4454 0 14.6858V25.3142C0 25.5546 0.00583333 25.795 0.0174999 26.035C0.0295834 26.275 0.0470833 26.5146 0.0708333 26.7538C0.0941666 26.9929 0.12375 27.2313 0.15875 27.4692C0.194167 27.7067 0.235417 27.9438 0.282083 28.1792C0.329167 28.415 0.381667 28.6496 0.44 28.8825C0.498333 29.1158 0.5625 29.3475 0.6325 29.5775C0.702083 29.8075 0.7775 30.0354 0.858333 30.2617C0.939583 30.4879 1.02583 30.7121 1.11792 30.9342C1.21 31.1563 1.30708 31.3758 1.41 31.5933C1.51292 31.8104 1.62083 32.025 1.73417 32.2371C1.8475 32.4492 1.96583 32.6579 2.08917 32.8642C2.21292 33.0704 2.34125 33.2733 2.475 33.4733C2.60833 33.6729 2.74667 33.8696 2.89 34.0625C3.03333 34.2554 3.18083 34.445 3.33333 34.6308C3.48583 34.8167 3.64292 34.9983 3.80417 35.1767C3.96583 35.3546 4.13125 35.5288 4.30125 35.6988C4.47125 35.8688 4.64542 36.0342 4.82333 36.1958C5.00167 36.3571 5.18333 36.5142 5.36917 36.6667C5.555 36.8192 5.74458 36.9667 5.9375 37.11C6.13042 37.2533 6.32708 37.3917 6.52667 37.525C6.72667 37.6583 6.92958 37.7871 7.13583 37.9108C7.34208 38.0342 7.55083 38.1525 7.76292 38.2658C7.975 38.3792 8.18958 38.4871 8.40667 38.59C8.62417 38.6929 8.84375 38.79 9.06583 38.8821C9.28792 38.9742 9.51208 39.0604 9.73833 39.1417C9.96458 39.2225 10.1925 39.2979 10.4225 39.3675C10.6525 39.4375 10.8842 39.5017 11.1175 39.56C11.3504 39.6183 11.585 39.6708 11.8208 39.7179C12.0563 39.7646 12.2933 39.8058 12.5308 39.8413C12.7688 39.8763 13.0071 39.9058 13.2463 39.9292C13.4854 39.9529 13.725 39.9704 13.965 39.9825C14.205 39.9942 14.4454 40 14.6858 40H25.3142C25.5546 40 25.795 39.9942 26.035 39.9825C26.275 39.9704 26.5146 39.9529 26.7538 39.9292C26.9929 39.9058 27.2313 39.8763 27.4692 39.8413C27.7067 39.8058 27.9438 39.7646 28.1792 39.7179C28.415 39.6708 28.6496 39.6183 28.8825 39.56C29.1158 39.5017 29.3475 39.4375 29.5775 39.3675C29.8075 39.2979 30.0354 39.2225 30.2617 39.1417C30.4879 39.0604 30.7121 38.9742 30.9342 38.8821C31.1563 38.79 31.3758 38.6929 31.5933 38.59C31.8104 38.4871 32.025 38.3792 32.2371 38.2658C32.4492 38.1525 32.6579 38.0342 32.8642 37.9108C33.0704 37.7871 33.2733 37.6583 33.4733 37.525C33.6729 37.3917 33.8696 37.2533 34.0625 37.11C34.2554 36.9667 34.445 36.8192 34.6308 36.6667C34.8167 36.5142 34.9983 36.3571 35.1767 36.1958C35.3546 36.0342 35.5288 35.8688 35.6988 35.6988C35.8688 35.5288 36.0342 35.3546 36.1958 35.1767C36.3571 34.9983 36.5142 34.8167 36.6667 34.6308C36.8192 34.445 36.9667 34.2554 37.11 34.0625C37.2533 33.8696 37.3917 33.6729 37.525 33.4733C37.6583 33.2733 37.7871 33.0704 37.9108 32.8642C38.0342 32.6579 38.1525 32.4492 38.2658 32.2371C38.3792 32.025 38.4871 31.8104 38.59 31.5933C38.6929 31.3758 38.79 31.1563 38.8821 30.9342C38.9742 30.7121 39.0604 30.4879 39.1417 30.2617C39.2225 30.0354 39.2979 29.8075 39.3675 29.5775C39.4375 29.3475 39.5017 29.1158 39.56 28.8825C39.6183 28.6496 39.6708 28.415 39.7179 28.1792C39.7646 27.9438 39.8058 27.7067 39.8413 27.4692C39.8763 27.2313 39.9058 26.9929 39.9292 26.7538C39.9529 26.5146 39.9704 26.275 39.9825 26.035C39.9942 25.795 40 25.5546 40 25.3142V14.6858C40 14.4454 39.9942 14.205 39.9825 13.965C39.9704 13.725 39.9529 13.4854 39.9292 13.2463C39.9058 13.0071 39.8763 12.7688 39.8408 12.5308C39.8058 12.2933 39.7646 12.0563 39.7179 11.8208C39.6708 11.585 39.6183 11.3504 39.56 11.1175C39.5017 10.8842 39.4375 10.6525 39.3675 10.4225C39.2979 10.1925 39.2225 9.96458 39.1417 9.73833C39.0604 9.51208 38.9742 9.28792 38.8821 9.06583C38.79 8.84375 38.6929 8.62417 38.59 8.40667C38.4871 8.18958 38.3792 7.975 38.2658 7.76292C38.1525 7.55083 38.0342 7.34208 37.9108 7.13583C37.7871 6.92958 37.6583 6.72667 37.525 6.52667C37.3917 6.32708 37.2533 6.13042 37.11 5.9375C36.9667 5.74458 36.8192 5.555 36.6667 5.36917C36.5142 5.18333 36.3571 5.00167 36.1958 4.82333C36.0342 4.64542 35.8688 4.47125 35.6988 4.30125C35.5288 4.13125 35.3546 3.96583 35.1767 3.80417C34.9983 3.64292 34.8167 3.48583 34.6308 3.33333C34.445 3.18083 34.2554 3.03333 34.0625 2.89C33.8696 2.74667 33.6729 2.60833 33.4733 2.475C33.2733 2.34167 33.0704 2.21292 32.8642 2.08917C32.6579 1.96583 32.4492 1.8475 32.2371 1.73417C32.025 1.62083 31.8104 1.51292 31.5933 1.41C31.3758 1.30708 31.1563 1.21 30.9342 1.11792C30.7121 1.02583 30.4879 0.939583 30.2617 0.858333C30.0354 0.7775 29.8075 0.702083 29.5775 0.6325C29.3475 0.5625 29.1158 0.498333 28.8825 0.44C28.6496 0.381667 28.415 0.329167 28.1792 0.282083C27.9438 0.235417 27.7067 0.194167 27.4692 0.15875C27.2313 0.12375 26.9929 0.0941666 26.7538 0.0708333C26.5146 0.0470833 26.275 0.0295834 26.035 0.0174999C25.795 0.00583333 25.5546 0 25.3142 0ZM19.4929 31.4288C16.0288 31.2429 10 28.3288 10 21.1358V10.7142C10 10.6442 10.0033 10.5742 10.0104 10.5042C10.0171 10.4346 10.0275 10.365 10.0413 10.2963C10.055 10.2275 10.0721 10.1596 10.0921 10.0921C10.1125 10.025 10.1363 9.95917 10.1629 9.89417C10.19 9.82958 10.22 9.76625 10.2529 9.70417C10.2863 9.64208 10.3221 9.58208 10.3613 9.52375C10.4 9.46542 10.4421 9.40917 10.4863 9.355C10.5308 9.30042 10.5779 9.24875 10.6275 9.19917C10.6771 9.14958 10.7292 9.1025 10.7833 9.05792C10.8375 9.01333 10.8942 8.97167 10.9525 8.9325C11.0108 8.89375 11.0708 8.8575 11.1329 8.82458C11.1946 8.79125 11.2579 8.76125 11.3229 8.73458C11.3875 8.7075 11.4538 8.68417 11.5208 8.66375C11.5879 8.64333 11.6558 8.62625 11.725 8.6125C11.7938 8.59875 11.8629 8.58875 11.9329 8.58167C12.0025 8.575 12.0725 8.57125 12.1429 8.57125H13.5713C13.6417 8.57125 13.7117 8.575 13.7817 8.58167C13.8513 8.58875 13.9208 8.59875 13.9896 8.6125C14.0583 8.62625 14.1263 8.64333 14.1933 8.66375C14.2608 8.68417 14.3267 8.7075 14.3917 8.73458C14.4563 8.76125 14.5196 8.79125 14.5817 8.82458C14.6433 8.8575 14.7038 8.89375 14.7621 8.9325C14.8204 8.97167 14.8767 9.01333 14.9308 9.05792C14.985 9.1025 15.0371 9.14958 15.0867 9.19917C15.1363 9.24875 15.1833 9.30042 15.2279 9.355C15.2725 9.40917 15.3142 9.46542 15.3533 9.52375C15.3921 9.58208 15.4283 9.64208 15.4613 9.70417C15.4942 9.76625 15.5242 9.82958 15.5513 9.89417C15.5779 9.95917 15.6017 10.025 15.6221 10.0921C15.6425 10.1596 15.6596 10.2275 15.6729 10.2963C15.6867 10.365 15.6971 10.4346 15.7042 10.5042C15.7108 10.5742 15.7142 10.6442 15.7142 10.7142V21.2788C15.7125 21.4096 15.7163 21.5404 15.7263 21.6713C15.7358 21.8021 15.7517 21.9321 15.7729 22.0613C15.7946 22.1904 15.8217 22.3188 15.8546 22.4454C15.8875 22.5725 15.9263 22.6975 15.97 22.8208C16.0142 22.9446 16.0642 23.0654 16.1192 23.1846C16.1742 23.3033 16.2342 23.4196 16.2996 23.5333C16.365 23.6471 16.4354 23.7575 16.5108 23.8646C16.5863 23.9717 16.6663 24.0754 16.7508 24.1754C16.8354 24.2758 16.9246 24.3717 17.0179 24.4638C17.1108 24.5558 17.2083 24.6438 17.3092 24.7271C17.4104 24.8104 17.515 24.8892 17.6233 24.9633C17.7317 25.0371 17.8429 25.1063 17.9571 25.1704C18.0717 25.2342 18.1888 25.2929 18.3083 25.3467C18.4279 25.4 18.5496 25.4483 18.6738 25.4908C18.7975 25.5333 18.9233 25.5704 19.0504 25.6017C19.1779 25.6333 19.3063 25.6588 19.4358 25.6788C19.5683 25.6967 19.7013 25.7083 19.835 25.7138C19.9688 25.7192 20.1025 25.7183 20.2358 25.7113C20.3696 25.7042 20.5025 25.6908 20.635 25.6717C20.7675 25.6521 20.8983 25.6263 21.0283 25.5946C21.1583 25.5629 21.2867 25.525 21.4129 25.4813C21.5396 25.4375 21.6638 25.3879 21.7854 25.3325C21.9071 25.2771 22.0258 25.2158 22.1421 25.1496C22.2583 25.0829 22.3708 25.0108 22.48 24.9338C22.5896 24.8567 22.695 24.7746 22.7967 24.6879C22.8983 24.6008 22.9958 24.5092 23.0888 24.4129C23.1817 24.3171 23.2704 24.2167 23.3538 24.1125C23.4375 24.0079 23.5163 23.9 23.59 23.7883C23.6633 23.6763 23.7317 23.5617 23.7946 23.4433C23.8571 23.3254 23.9142 23.2046 23.9658 23.0808C24.0175 22.9575 24.0629 22.8317 24.1025 22.7042C24.1425 22.5763 24.1763 22.4471 24.2038 22.3163C24.2313 22.185 24.2529 22.0533 24.2679 21.9204C24.2833 21.7875 24.2921 21.6542 24.295 21.5204C24.2979 21.3867 24.2942 21.2529 24.2846 21.1196C24.275 20.9863 24.2588 20.8533 24.2367 20.7213C24.2146 20.5896 24.1863 20.4588 24.1517 20.3296C24.1175 20.2004 24.0771 20.0729 24.0308 19.9475C23.9846 19.8217 23.9325 19.6988 23.8746 19.5783C23.8167 19.4575 23.7533 19.34 23.6842 19.225C23.6154 19.1104 23.5413 18.9992 23.4621 18.8917C23.3829 18.7838 23.2988 18.68 23.2096 18.58C23.1204 18.48 23.0271 18.3846 22.9292 18.2933C22.8313 18.2025 22.7292 18.1158 22.6233 18.0346C22.5171 17.9529 22.4075 17.8767 22.2942 17.805C22.1808 17.7338 22.0646 17.6679 21.9454 17.6075C21.8258 17.5471 21.7042 17.4925 21.5796 17.4433C21.455 17.3946 21.3283 17.3513 21.2 17.3142C21.1154 17.2917 21.0333 17.2621 20.9533 17.2258C20.8738 17.19 20.7971 17.1475 20.7242 17.0992C20.6513 17.0508 20.5825 16.9967 20.5183 16.9371C20.4542 16.8775 20.395 16.8133 20.3413 16.7442C20.2875 16.675 20.2396 16.6017 20.1979 16.525C20.1558 16.4479 20.1204 16.3683 20.0913 16.2854C20.0625 16.2029 20.04 16.1183 20.025 16.0321C20.0096 15.9458 20.0013 15.8592 20 15.7713V13.1858C19.9996 13.1275 20.0025 13.0696 20.0083 13.0121C20.0146 12.9542 20.0238 12.8971 20.0358 12.8404C20.0483 12.7838 20.0633 12.7275 20.0817 12.6725C20.1004 12.6175 20.1217 12.5638 20.1458 12.5108C20.17 12.4579 20.1971 12.4067 20.2271 12.3571C20.2571 12.3075 20.2896 12.2592 20.3246 12.2129C20.3596 12.1667 20.3971 12.1225 20.4371 12.0804C20.4771 12.0383 20.5192 11.9988 20.5633 11.9613C20.6079 11.9238 20.6542 11.8888 20.7021 11.8563C20.7504 11.8238 20.8 11.7938 20.8513 11.7671C20.9029 11.74 20.9554 11.7158 21.0096 11.6946C21.0638 11.6733 21.1188 11.655 21.1746 11.6396C21.2308 11.6246 21.2875 11.6125 21.3446 11.6033C21.4021 11.5942 21.4596 11.5883 21.5175 11.5854C21.5758 11.5829 21.6338 11.5833 21.6917 11.5871C21.7496 11.5904 21.8071 11.5971 21.8642 11.6071C22.0192 11.6354 22.1729 11.6671 22.3263 11.7025C22.4796 11.7379 22.6321 11.7771 22.7833 11.8196C22.9346 11.8625 23.085 11.9083 23.2342 11.9583C23.3833 12.0079 23.5317 12.0613 23.6783 12.1179C23.825 12.1746 23.9704 12.2346 24.1142 12.2983C24.2579 12.3617 24.4004 12.4288 24.5408 12.4992C24.6817 12.5692 24.8208 12.6429 24.9579 12.7196C25.0954 12.7967 25.2304 12.8767 25.3642 12.96C25.4975 13.0429 25.6292 13.1292 25.7583 13.2188C25.8879 13.3083 26.015 13.4008 26.14 13.4963C26.265 13.5917 26.3879 13.69 26.5083 13.7913C26.6288 13.8921 26.7467 13.9963 26.8621 14.1029C26.9775 14.21 27.0904 14.3192 27.2008 14.4313C27.3113 14.5438 27.4188 14.6583 27.5238 14.7754C27.6288 14.8925 27.7308 15.0121 27.83 15.1342C27.9292 15.2563 28.0254 15.3804 28.1192 15.5071C28.2125 15.6338 28.3029 15.7625 28.39 15.8933C28.4775 16.0242 28.5617 16.1567 28.6429 16.2917C28.7238 16.4263 28.8017 16.5629 28.8763 16.7017C28.9508 16.84 29.0221 16.98 29.09 17.1221C29.1583 17.2638 29.2229 17.4071 29.2842 17.5521C29.3454 17.6971 29.4029 17.8433 29.4575 17.9908C29.5117 18.1383 29.5625 18.2871 29.61 18.4371C29.6571 18.5871 29.7008 18.7383 29.7413 18.8904C29.7813 19.0425 29.8179 19.1954 29.8508 19.3492C29.8838 19.5029 29.9133 19.6575 29.9388 19.8125C29.9646 19.9679 29.9867 20.1238 30.005 20.2796C30.0233 20.4358 30.0379 20.5925 30.0488 20.7496C30.06 20.9063 30.0671 21.0633 30.0704 21.2208C30.0742 21.3779 30.0742 21.5354 30.07 21.6925C30.0663 21.8496 30.0588 22.0067 30.0475 22.1638C30.0358 22.3204 30.0208 22.4771 30.0025 22.6333C29.9838 22.7896 29.9613 22.945 29.9354 23.1004C29.9092 23.2554 29.8796 23.41 29.8463 23.5638C29.8129 23.7175 29.7758 23.87 29.7354 24.0221C29.695 24.1742 29.6508 24.325 29.6033 24.475C29.5554 24.625 29.5042 24.7738 29.4496 24.9213C29.395 25.0688 29.3371 25.2146 29.2754 25.3596C29.2138 25.5042 29.1488 25.6475 29.0804 25.7892C29.0121 25.9308 28.9404 26.0708 28.8654 26.2092C28.7908 26.3475 28.7125 26.4838 28.6313 26.6183C28.5496 26.7529 28.4654 26.8858 28.3775 27.0163C28.29 27.1471 28.1992 27.2754 28.1058 27.4017C28.0121 27.5283 27.9154 27.6521 27.8158 27.7742C27.7163 27.8958 27.6138 28.015 27.5088 28.1321C27.4033 28.2492 27.2958 28.3633 27.185 28.4754C27.0746 28.5871 26.9613 28.6967 26.8454 28.8029C26.73 28.9096 26.6117 29.0133 26.4908 29.1142C26.3704 29.215 26.2475 29.3133 26.1221 29.4083C25.9971 29.5033 25.8696 29.5958 25.74 29.685C25.6104 29.7738 25.4788 29.86 25.345 29.9429C25.2113 30.0258 25.0758 30.1054 24.9383 30.1821C24.8008 30.2588 24.6617 30.3317 24.5208 30.4017C24.38 30.4717 24.2375 30.5383 24.0938 30.6017C23.9496 30.665 23.8042 30.7246 23.6571 30.7813C23.5104 30.8375 23.3625 30.8904 23.2129 30.9396C23.0638 30.9892 22.9133 31.035 22.7617 31.0771C22.61 31.1196 22.4579 31.1583 22.3046 31.1933C22.1513 31.2283 21.9971 31.26 21.8421 31.2875C21.6875 31.3154 21.5321 31.3396 21.3763 31.36C21.22 31.3808 21.0638 31.3975 20.9071 31.4104C20.7504 31.4238 20.5933 31.4329 20.4363 31.4388C20.2788 31.4446 20.1217 31.4467 19.9642 31.445C19.8071 31.4429 19.65 31.4375 19.4929 31.4288Z" fill="#EFEFEF"></path></g><path d="M60.672 27.544H62.048C64.8853 27.544 66.304 26.296 66.304 23.8C66.304 21.2827 64.8853 20.024 62.048 20.024H60.672V27.544ZM60.672 18.008H62.912C63.6587 17.688 64.2667 17.208 64.736 16.568C65.2267 15.9067 65.472 15.096 65.472 14.136C65.472 13.1547 65.1413 12.344 64.48 11.704C63.8187 11.064 62.9333 10.744 61.824 10.744H60.672V18.008ZM61.824 8.76C64.8747 8.76 67.1147 9.28267 68.544 10.328C69.9947 11.352 70.72 12.7067 70.72 14.392C70.72 16.3333 69.7707 17.752 67.872 18.648C70.304 19.5227 71.52 21.24 71.52 23.8C71.52 25.656 70.7413 27.0853 69.184 28.088C67.6267 29.0693 65.3227 29.56 62.272 29.56H53.376C53.376 29.3893 53.376 29.144 53.376 28.824C53.376 28.4827 53.4293 28.12 53.536 27.736C54.1973 27.6293 54.6987 27.448 55.04 27.192C55.3813 26.9147 55.552 26.456 55.552 25.816V10.904C54.9973 10.6693 54.2507 10.552 53.312 10.552C53.2907 10.4027 53.28 10.1893 53.28 9.912C53.28 9.63467 53.3333 9.25067 53.44 8.76H61.824ZM81.0283 10.488C81.0283 11.256 80.7616 11.9173 80.2283 12.472C79.6949 13.0053 79.0336 13.272 78.2443 13.272C77.4763 13.272 76.8149 13.0053 76.2603 12.472C75.7056 11.9173 75.4283 11.256 75.4283 10.488C75.4283 9.69867 75.7056 9.03733 76.2603 8.504C76.8149 7.94933 77.4763 7.672 78.2443 7.672C79.0336 7.672 79.6949 7.94933 80.2283 8.504C80.7616 9.03733 81.0283 9.69867 81.0283 10.488ZM82.5323 27.736C82.5323 27.864 82.5323 28.0773 82.5323 28.376C82.5323 28.6747 82.4896 29.0693 82.4043 29.56H73.6043C73.6043 29.3893 73.6043 29.144 73.6043 28.824C73.6043 28.4827 73.6576 28.12 73.7643 27.736C74.4256 27.6293 74.9269 27.448 75.2683 27.192C75.6096 26.9147 75.7803 26.4667 75.7803 25.848V17.56C75.4603 17.5173 75.1083 17.496 74.7243 17.496C74.3616 17.496 73.9989 17.5067 73.6363 17.528C73.6789 16.7813 73.7749 16.184 73.9243 15.736C75.9936 15.032 78.2656 14.6267 80.7403 14.52V27.416C81.2523 27.6293 81.8496 27.736 82.5323 27.736ZM96.8953 14.808C97.0446 15.3413 97.1193 15.8427 97.1193 16.312C97.1193 16.76 97.0873 17.176 97.0233 17.56L89.8233 27.576H93.0553C93.8446 27.576 94.4419 27.384 94.8473 27C95.2526 26.5947 95.5726 25.8373 95.8073 24.728C96.1913 24.728 96.5859 24.8133 96.9913 24.984C96.9913 25.112 96.9913 25.528 96.9913 26.232C96.9913 26.936 96.8953 28.0453 96.7033 29.56H84.6073C84.4366 29.0267 84.3513 28.5253 84.3513 28.056C84.3513 27.5867 84.3833 27.16 84.4473 26.776L91.7433 16.76H88.6073C87.8393 16.76 87.2526 16.9627 86.8473 17.368C86.4419 17.7733 86.1326 18.52 85.9193 19.608C85.4286 19.608 85.0233 19.512 84.7033 19.32C84.7033 17.72 84.7993 16.216 84.9913 14.808H96.8953ZM107.15 19.064H108.302C109.582 19.064 110.574 18.7013 111.278 17.976C111.982 17.2507 112.334 16.2267 112.334 14.904C112.334 13.5813 111.982 12.568 111.278 11.864C110.595 11.1387 109.603 10.776 108.302 10.776H107.15V19.064ZM109.198 21.048H107.15V27.128C107.896 27.448 108.824 27.6507 109.934 27.736C109.934 27.864 109.934 28.088 109.934 28.408C109.934 28.7067 109.88 29.0907 109.774 29.56H99.8535C99.8535 29.3893 99.8535 29.144 99.8535 28.824C99.8535 28.4827 99.9068 28.12 100.014 27.736C100.675 27.6293 101.176 27.448 101.518 27.192C101.859 26.9147 102.03 26.456 102.03 25.816V10.904C101.475 10.6693 100.728 10.552 99.7895 10.552C99.7682 10.4027 99.7575 10.1893 99.7575 9.912C99.7575 9.63467 99.8108 9.25067 99.9175 8.76H109.166C111.683 8.76 113.752 9.336 115.374 10.488C116.995 11.6187 117.806 13.1013 117.806 14.936C117.806 16.7707 116.995 18.2533 115.374 19.384C113.774 20.4933 111.715 21.048 109.198 21.048ZM134.744 17.88V26.616C135.384 26.7653 135.992 26.84 136.568 26.84C136.611 27.1813 136.632 27.5013 136.632 27.8C136.632 28.0987 136.632 28.3333 136.632 28.504C134.776 29.272 132.653 29.6773 130.264 29.72C130.072 28.696 129.944 27.7573 129.88 26.904C128.792 28.9093 127.107 29.912 124.824 29.912C123.331 29.912 122.125 29.464 121.208 28.568C120.312 27.672 119.864 26.4347 119.864 24.856V17.4C119.544 17.3787 119.224 17.368 118.904 17.368C118.584 17.368 118.296 17.368 118.04 17.368C118.083 16.6213 118.179 16.0347 118.328 15.608C120.44 14.8827 122.605 14.4773 124.824 14.392V24.216C124.824 25.048 125.016 25.6667 125.4 26.072C125.784 26.4773 126.285 26.68 126.904 26.68C128.141 26.68 129.101 25.72 129.784 23.8V19C129.784 18.1893 129.667 17.5813 129.432 17.176C129.197 16.7707 128.781 16.472 128.184 16.28C128.269 15.8107 128.397 15.4267 128.568 15.128C129.976 14.5947 131.448 14.328 132.984 14.328C133.603 14.328 134.232 14.3707 134.872 14.456C134.787 15.224 134.744 16.3653 134.744 17.88ZM147.252 27.736C147.252 27.864 147.252 28.0773 147.252 28.376C147.252 28.6747 147.21 29.0693 147.124 29.56H138.324C138.324 29.3893 138.324 29.144 138.324 28.824C138.324 28.4827 138.378 28.12 138.484 27.736C139.146 27.6293 139.647 27.448 139.988 27.192C140.33 26.9147 140.5 26.4667 140.5 25.848V9.56C140.266 9.51733 139.956 9.496 139.572 9.496C139.188 9.496 138.783 9.50667 138.356 9.528C138.399 8.76 138.495 8.16267 138.644 7.736C140.692 7.01067 142.964 6.60533 145.46 6.52V27.416C145.972 27.6293 146.57 27.736 147.252 27.736ZM153.871 27.736C154.511 27.736 155.023 27.5867 155.407 27.288C155.813 26.968 156.015 26.5627 156.015 26.072C156.015 25.56 155.685 25.0587 155.023 24.568C154.362 24.056 153.626 23.6187 152.815 23.256C152.026 22.872 151.301 22.3067 150.639 21.56C149.978 20.8133 149.647 19.9493 149.647 18.968C149.647 17.4533 150.181 16.312 151.247 15.544C152.335 14.776 153.85 14.392 155.791 14.392C157.029 14.392 158.341 14.616 159.727 15.064C159.727 15.3627 159.727 15.8747 159.727 16.6C159.727 17.3253 159.663 18.2213 159.535 19.288C158.981 19.288 158.458 19.2347 157.967 19.128C158.01 18.872 158.031 18.6267 158.031 18.392C158.031 17.0693 157.338 16.408 155.951 16.408C155.461 16.408 155.045 16.5467 154.703 16.824C154.383 17.08 154.223 17.4747 154.223 18.008C154.223 18.52 154.565 19.0107 155.247 19.48C155.951 19.928 156.709 20.3227 157.519 20.664C158.351 20.984 159.109 21.528 159.791 22.296C160.495 23.064 160.847 23.992 160.847 25.08C160.847 26.488 160.218 27.6613 158.959 28.6C157.722 29.5173 156.154 29.976 154.255 29.976C152.357 29.976 150.725 29.7733 149.359 29.368C149.338 28.92 149.327 28.3333 149.327 27.608C149.327 26.8613 149.381 25.9333 149.487 24.824C149.914 24.824 150.469 24.8667 151.151 24.952C151.151 25.016 151.151 25.208 151.151 25.528C151.151 25.848 151.226 26.2 151.375 26.584C151.546 26.968 151.813 27.2453 152.175 27.416C152.666 27.6293 153.231 27.736 153.871 27.736ZM169.9 16.76C168.556 16.76 167.724 17.9227 167.404 20.248L169.9 20.056L171.34 19.992C171.319 17.8373 170.839 16.76 169.9 16.76ZM167.308 21.976V22.04C167.308 25.3467 168.545 27 171.02 27C172.321 27 173.804 26.68 175.468 26.04L176.204 27.192C174.391 29.048 172.193 29.976 169.612 29.976C167.841 29.976 166.177 29.3787 164.62 28.184C163.852 27.608 163.223 26.8293 162.732 25.848C162.263 24.8667 162.028 23.768 162.028 22.552C162.028 20.0773 162.828 18.104 164.428 16.632C166.028 15.1387 167.98 14.392 170.284 14.392C171.82 14.392 173.164 14.8187 174.316 15.672C175.639 16.632 176.3 18.296 176.3 20.664C176.129 21.176 175.916 21.6133 175.66 21.976H167.308Z" fill="#EFEFEF"></path><defs><clipPath id="clip0_2001_362"><rect width="40" height="40" fill="white"></rect></clipPath></defs></svg>